<svg width="452" height="382" viewBox="0 0 452 382" fill="none" xmlns="http://www.w3.org/2000/svg">
<path d="M350.619 265.14C276.336 272.583 200.331 246.216 144.781 187.852C223.265 179.794 297.947 209.967 350.619 265.14Z" fill="#F5F5F5"/>
<path d="M406.489 313.511C363.806 249.435 348.036 166.624 368.612 86.2505C413.87 153.851 425.861 237.388 406.489 313.511Z" fill="#F5F5F5"/>
<path d="M395.655 389.095C427.129 317.876 487.129 261.666 562.963 239.748C529.867 315.093 467.422 368.232 395.655 389.095Z" fill="#F5F5F5"/>
<path d="M328.3 416.926C402.58 409.486 478.583 435.85 534.135 494.217C455.652 502.275 380.969 472.101 328.298 416.929L328.3 416.926Z" fill="#F5F5F5"/>
<path d="M272.426 368.555C315.108 432.631 330.878 515.442 310.302 595.815C265.045 528.214 253.054 444.678 272.426 368.555Z" fill="#F5F5F5"/>
<path d="M283.263 292.968C251.788 364.188 191.789 420.398 115.955 442.316C149.051 366.971 211.495 313.831 283.263 292.968Z" fill="#F5F5F5"/>
</svg>
