<svg width="20" height="20" viewBox="0 0 20 20" fill="none" xmlns="http://www.w3.org/2000/svg">
<path fill-rule="evenodd" clip-rule="evenodd" d="M0.52 5.823C0 6.77 0 7.915 0 10.203V11.725C0 15.625 -1.19209e-07 17.576 1.172 18.788C2.343 20 4.229 20 8 20H12C15.771 20 17.657 20 18.828 18.788C20 17.576 20 15.626 20 11.725V10.204C20 7.915 20 6.771 19.48 5.823C18.962 4.874 18.013 4.286 16.116 3.108L14.116 1.867C12.111 0.622 11.108 0 10 0C8.892 0 7.89 0.622 5.884 1.867L3.884 3.108C1.987 4.286 1.039 4.874 0.52 5.823ZM7.447 13.398C7.36814 13.3366 7.27782 13.2916 7.18134 13.2657C7.08486 13.2397 6.98416 13.2333 6.88516 13.2468C6.78615 13.2603 6.69084 13.2934 6.60483 13.3442C6.51881 13.3951 6.44381 13.4626 6.38424 13.5428C6.32468 13.623 6.28174 13.7143 6.25796 13.8114C6.23417 13.9084 6.23002 14.0092 6.24574 14.1079C6.26146 14.2066 6.29674 14.3011 6.3495 14.386C6.40227 14.4708 6.47145 14.5443 6.553 14.602C7.54827 15.3461 8.75731 15.7488 10 15.75C11.2427 15.7488 12.4517 15.3461 13.447 14.602C13.5285 14.5443 13.5977 14.4708 13.6505 14.386C13.7033 14.3011 13.7385 14.2066 13.7543 14.1079C13.77 14.0092 13.7658 13.9084 13.742 13.8114C13.7183 13.7143 13.6753 13.623 13.6158 13.5428C13.5562 13.4626 13.4812 13.3951 13.3952 13.3442C13.3092 13.2934 13.2138 13.2603 13.1148 13.2468C13.0158 13.2333 12.9151 13.2397 12.8187 13.2657C12.7222 13.2916 12.6319 13.3366 12.553 13.398C11.8162 13.95 10.9206 14.2488 10 14.25C9.07937 14.2488 8.1838 13.95 7.447 13.398Z" fill="#969EAF"/>
</svg>
