<svg width="60" height="60" viewBox="0 0 60 60" fill="none" xmlns="http://www.w3.org/2000/svg">
<rect width="60" height="60" rx="10" fill="#EAECF0" fill-opacity="0.5"/>
<path d="M30.1332 37.7667C30.4887 37.7667 30.7887 37.6444 31.0332 37.4C31.2776 37.1555 31.3998 36.8555 31.3998 36.5C31.3998 36.1444 31.2776 35.8444 31.0332 35.6C30.7887 35.3555 30.4887 35.2333 30.1332 35.2333C29.7776 35.2333 29.4776 35.3555 29.2332 35.6C28.9887 35.8444 28.8665 36.1444 28.8665 36.5C28.8665 36.8555 28.9887 37.1555 29.2332 37.4C29.4776 37.6444 29.7776 37.7667 30.1332 37.7667ZM28.9665 32.9H30.9332C30.9332 32.3222 31.0054 31.7944 31.1498 31.3167C31.2943 30.8389 31.7443 30.2889 32.4998 29.6667C33.1887 29.0889 33.6776 28.5222 33.9665 27.9667C34.2554 27.4111 34.3998 26.8 34.3998 26.1333C34.3998 24.9555 34.0165 24.0111 33.2498 23.3C32.4832 22.5889 31.4665 22.2333 30.1998 22.2333C29.1109 22.2333 28.1498 22.5055 27.3165 23.05C26.4832 23.5944 25.8776 24.3444 25.4998 25.3L27.2665 25.9667C27.5109 25.3444 27.8776 24.8611 28.3665 24.5167C28.8554 24.1722 29.4332 24 30.0998 24C30.8554 24 31.4665 24.2055 31.9332 24.6167C32.3998 25.0278 32.6332 25.5555 32.6332 26.2C32.6332 26.6889 32.4887 27.15 32.1998 27.5833C31.9109 28.0167 31.4887 28.4667 30.9332 28.9333C30.2665 29.5111 29.7721 30.0833 29.4498 30.65C29.1276 31.2167 28.9665 31.9667 28.9665 32.9ZM29.9998 43.3333C28.1776 43.3333 26.4554 42.9833 24.8332 42.2833C23.2109 41.5833 21.7943 40.6278 20.5832 39.4167C19.3721 38.2055 18.4165 36.7889 17.7165 35.1667C17.0165 33.5444 16.6665 31.8222 16.6665 30C16.6665 28.1555 17.0165 26.4222 17.7165 24.8C18.4165 23.1778 19.3721 21.7667 20.5832 20.5667C21.7943 19.3667 23.2109 18.4167 24.8332 17.7167C26.4554 17.0167 28.1776 16.6667 29.9998 16.6667C31.8443 16.6667 33.5776 17.0167 35.1998 17.7167C36.8221 18.4167 38.2332 19.3667 39.4332 20.5667C40.6332 21.7667 41.5832 23.1778 42.2832 24.8C42.9832 26.4222 43.3332 28.1555 43.3332 30C43.3332 31.8222 42.9832 33.5444 42.2832 35.1667C41.5832 36.7889 40.6332 38.2055 39.4332 39.4167C38.2332 40.6278 36.8221 41.5833 35.1998 42.2833C33.5776 42.9833 31.8443 43.3333 29.9998 43.3333ZM29.9998 41.3333C33.1554 41.3333 35.8332 40.2278 38.0332 38.0167C40.2332 35.8055 41.3332 33.1333 41.3332 30C41.3332 26.8444 40.2332 24.1667 38.0332 21.9667C35.8332 19.7667 33.1554 18.6667 29.9998 18.6667C26.8665 18.6667 24.1943 19.7667 21.9832 21.9667C19.7721 24.1667 18.6665 26.8444 18.6665 30C18.6665 33.1333 19.7721 35.8055 21.9832 38.0167C24.1943 40.2278 26.8665 41.3333 29.9998 41.3333Z" fill="#505050"/>
</svg>
