<svg width="26" height="18" viewBox="0 0 26 18" fill="none" xmlns="http://www.w3.org/2000/svg">
<path d="M25.5 1.49375C25.5 0.80625 24.9425 0.25 24.2563 0.25H14.2437C13.9139 0.25 13.5975 0.381037 13.3643 0.614286C13.131 0.847534 13 1.16389 13 1.49375C13 1.82361 13.131 2.13997 13.3643 2.37321C13.5975 2.60646 13.9139 2.7375 14.2437 2.7375H24.2563C24.5861 2.7375 24.9025 2.60646 25.1357 2.37321C25.369 2.13997 25.5 1.82361 25.5 1.49375ZM25.5 9C25.5 8.3125 24.9425 7.75625 24.2563 7.75625H1.74375C1.41389 7.75625 1.09754 7.88729 0.864286 8.12054C0.631039 8.35378 0.5 8.67014 0.5 9C0.5 9.32986 0.631039 9.64622 0.864286 9.87946C1.09754 10.1127 1.41389 10.2437 1.74375 10.2437H24.2563C24.5861 10.2437 24.9025 10.1127 25.1357 9.87946C25.369 9.64622 25.5 9.32986 25.5 9ZM24.2563 15.2625C24.5861 15.2625 24.9025 15.3935 25.1357 15.6268C25.369 15.86 25.5 16.1764 25.5 16.5062C25.5 16.8361 25.369 17.1525 25.1357 17.3857C24.9025 17.619 24.5861 17.75 24.2563 17.75H9.24375C8.91389 17.75 8.59753 17.619 8.36429 17.3857C8.13104 17.1525 8 16.8361 8 16.5062C8 16.1764 8.13104 15.86 8.36429 15.6268C8.59753 15.3935 8.91389 15.2625 9.24375 15.2625H24.2563Z" fill="#969EAF"/>
</svg>
