<svg width="60" height="60" viewBox="0 0 60 60" fill="none" xmlns="http://www.w3.org/2000/svg">
<rect width="60" height="60" rx="10" fill="#EAECF0" fill-opacity="0.5"/>
<path d="M19.3335 39.3333V37.3333H22.1335V27.1333C22.1335 25.2667 22.6835 23.6055 23.7835 22.15C24.8835 20.6944 26.3335 19.7778 28.1335 19.4V18.4333C28.1335 17.9222 28.3168 17.5 28.6835 17.1667C29.0502 16.8333 29.4891 16.6667 30.0002 16.6667C30.5113 16.6667 30.9502 16.8333 31.3168 17.1667C31.6835 17.5 31.8668 17.9222 31.8668 18.4333V19.4C33.6668 19.7778 35.1224 20.6944 36.2335 22.15C37.3446 23.6055 37.9002 25.2667 37.9002 27.1333V37.3333H40.6668V39.3333H19.3335ZM30.0002 43.3333C29.2891 43.3333 28.6668 43.0722 28.1335 42.55C27.6002 42.0278 27.3335 41.4 27.3335 40.6667H32.6668C32.6668 41.4 32.4057 42.0278 31.8835 42.55C31.3613 43.0722 30.7335 43.3333 30.0002 43.3333ZM24.1335 37.3333H35.9002V27.1333C35.9002 25.4889 35.3335 24.0889 34.2002 22.9333C33.0668 21.7778 31.6779 21.2 30.0335 21.2C28.3891 21.2 26.9946 21.7778 25.8502 22.9333C24.7057 24.0889 24.1335 25.4889 24.1335 27.1333V37.3333Z" fill="#505050"/>
</svg>
